<svg id="HomeIcon" xmlns="http://www.w3.org/2000/svg" class="h-10 w-10" fill="none" viewBox="0 0 24 24" stroke="currentColor" stroke-width="2">
  <path stroke-linecap="round" stroke-linejoin="round" d="M3 12l2-2m0 0l7-7 7 7M5 10v10a1 1 0 001 1h3m10-11l2 2m-2-2v10a1 1 0 01-1 1h-3m-6 0a1 1 0 001-1v-4a1 1 0 011-1h2a1 1 0 011 1v4a1 1 0 001 1m-6 0h6" />
</svg>
<svg id="HashtagIcon" xmlns="http://www.w3.org/2000/svg" class="h-10 w-10" fill="none" viewBox="0 0 24 24" stroke="currentColor" stroke-width="2">
  <path stroke-linecap="round" stroke-linejoin="round" d="M7 20l4-16m2 16l4-16M6 9h14M4 15h14" />
</svg>
<svg id="BellIcon" xmlns="http://www.w3.org/2000/svg" class="h-10 w-10" fill="none" viewBox="0 0 24 24" stroke="currentColor" stroke-width="2">
  <path stroke-linecap="round" stroke-linejoin="round" d="M15 17h5l-1.405-1.405A2.032 2.032 0 0118 14.158V11a6.002 6.002 0 00-4-5.659V5a2 2 0 10-4 0v.341C7.67 6.165 6 8.388 6 11v3.159c0 .538-.214 1.055-.595 1.436L4 17h5m6 0v1a3 3 0 11-6 0v-1m6 0H9" />
</svg>
<svg id="MessageIcon" xmlns="http://www.w3.org/2000/svg" class="h-10 w-10" fill="none" viewBox="0 0 24 24" stroke="currentColor" stroke-width="2">
  <path stroke-linecap="round" stroke-linejoin="round" d="M7 8h10M7 12h4m1 8l-4-4H5a2 2 0 01-2-2V6a2 2 0 012-2h14a2 2 0 012 2v8a2 2 0 01-2 2h-3l-4 4z" />
</svg>
<svg id="BookmarkIcon" xmlns="http://www.w3.org/2000/svg" class="h-10 w-10" fill="none" viewBox="0 0 24 24" stroke="currentColor" stroke-width="2">
  <path stroke-linecap="round" stroke-linejoin="round" d="M5 5a2 2 0 012-2h10a2 2 0 012 2v16l-7-3.5L5 21V5z" />
</svg>
<svg id="ListIcon" xmlns="http://www.w3.org/2000/svg" class="h-10 w-10" fill="none" viewBox="0 0 24 24" stroke="currentColor" stroke-width="2">
  <path stroke-linecap="round" stroke-linejoin="round" d="M9 5H7a2 2 0 00-2 2v12a2 2 0 002 2h10a2 2 0 002-2V7a2 2 0 00-2-2h-2M9 5a2 2 0 002 2h2a2 2 0 002-2M9 5a2 2 0 012-2h2a2 2 0 012 2m-3 7h3m-3 4h3m-6-4h.01M9 16h.01" />
</svg>


